<svg width="140" height="44" viewBox="0 0 140 44" fill="none" xmlns="http://www.w3.org/2000/svg">
<path d="M28.9201 37.4267C27.4206 39.4606 25.5461 41.0646 23.2968 42.2387C21.0688 43.4129 18.6588 44 16.0667 44C13.1533 44 10.4648 43.2557 8.00123 41.767C5.55909 40.2783 3.60966 38.2759 2.15294 35.7598C0.717648 33.2228 0 30.4551 0 27.4568C0 24.4375 0.717648 21.6593 2.15294 19.1222C3.60966 16.5852 5.55909 14.5723 8.00123 13.0836C10.4648 11.5949 13.1533 10.8506 16.0667 10.8506C18.6588 10.8506 21.0688 11.4377 23.2968 12.6119C25.5461 13.786 27.4206 15.4005 28.9201 17.4553L21.9793 21.1036C21.2081 20.244 20.2976 19.5835 19.2479 19.1222C18.2197 18.64 17.1593 18.3989 16.0667 18.3989C14.5243 18.3989 13.1105 18.8182 11.8251 19.6569C10.5612 20.4746 9.55435 21.5859 8.80457 22.9907C8.07621 24.3746 7.71203 25.8632 7.71203 27.4568C7.71203 29.0503 8.07621 30.539 8.80457 31.9228C9.55435 33.2857 10.5719 34.3865 11.8573 35.2252C13.1426 36.0429 14.5458 36.4517 16.0667 36.4517C17.1807 36.4517 18.2518 36.2106 19.2801 35.7284C20.3298 35.2461 21.2295 34.5961 21.9793 33.7784L28.9201 37.4267Z" fill="url(#paint0_linear)"/>
<path d="M54.162 19.3738C52.9409 18.5561 51.5806 18.1472 50.081 18.1472C48.5386 18.1472 47.189 18.5456 46.0322 19.3424C44.8968 20.1182 44.0185 21.1875 43.3973 22.5504C42.776 23.9133 42.4654 25.4124 42.4654 27.0479V43.1823H34.6891V11.7627H42.4011V15.5054C43.5151 14.0586 44.8218 12.9264 46.3214 12.1086C47.8424 11.2909 49.524 10.8821 51.3664 10.8821C53.1016 10.8821 54.4512 11.0288 55.4152 11.3224L54.162 19.3738Z" fill="url(#paint1_linear)"/>
<path d="M64.2172 7.79986C63.5103 7.79986 62.8462 7.62163 62.225 7.26519C61.6251 6.90874 61.1431 6.43698 60.7789 5.84989C60.4148 5.24184 60.2327 4.59185 60.2327 3.89993C60.2327 3.208 60.4148 2.5685 60.7789 1.98141C61.1431 1.37336 61.6251 0.891111 62.225 0.534667C62.8462 0.178222 63.5103 0 64.2172 0C64.9456 0 65.6097 0.178222 66.2095 0.534667C66.8308 0.891111 67.3128 1.37336 67.6555 1.98141C68.0197 2.5685 68.2018 3.208 68.2018 3.89993C68.2018 4.96926 67.8162 5.89183 67.045 6.66762C66.2738 7.42244 65.3312 7.79986 64.2172 7.79986ZM68.0411 11.7312V43.1823H60.3291V11.7312H68.0411Z" fill="url(#paint2_linear)"/>
<path d="M86.8804 35.634H103.204V43.1823H75.7622V35.634L92.1181 19.2795H75.7622V11.7312H103.204V19.2795L86.8804 35.634Z" fill="url(#paint3_linear)"/>
<path d="M121.68 19.8142L121.648 43.1823H113.936L113.968 19.8142H109.18V12.2659H113.968L113.936 1.85561H121.648L121.68 12.2659H127.979V19.8142H121.68Z" fill="url(#paint4_linear)"/>
<path d="M136.015 7.79986C135.309 7.79986 134.644 7.62163 134.023 7.26519C133.423 6.90874 132.941 6.43698 132.577 5.84989C132.213 5.24184 132.031 4.59185 132.031 3.89993C132.031 3.208 132.213 2.5685 132.577 1.98141C132.941 1.37336 133.423 0.891111 134.023 0.534667C134.644 0.178222 135.309 0 136.015 0C136.744 0 137.408 0.178222 138.008 0.534667C138.629 0.891111 139.111 1.37336 139.454 1.98141C139.818 2.5685 140 3.208 140 3.89993C140 4.96926 139.614 5.89183 138.843 6.66762C138.072 7.42244 137.129 7.79986 136.015 7.79986ZM139.839 11.7312V43.1823H132.127V11.7312H139.839Z" fill="url(#paint5_linear)"/>
<defs>
<linearGradient id="paint0_linear" x1="2.24934" y1="20.5375" x2="143.919" y2="32.0251" gradientUnits="userSpaceOnUse">
<stop offset="0.171096" stop-color="#A3ECDF"/>
<stop offset="1" stop-color="#DDFB66"/>
</linearGradient>
<linearGradient id="paint1_linear" x1="2.24934" y1="20.5375" x2="143.919" y2="32.0251" gradientUnits="userSpaceOnUse">
<stop offset="0.171096" stop-color="#A3ECDF"/>
<stop offset="1" stop-color="#DDFB66"/>
</linearGradient>
<linearGradient id="paint2_linear" x1="2.24934" y1="20.5375" x2="143.919" y2="32.0251" gradientUnits="userSpaceOnUse">
<stop offset="0.171096" stop-color="#A3ECDF"/>
<stop offset="1" stop-color="#DDFB66"/>
</linearGradient>
<linearGradient id="paint3_linear" x1="2.24934" y1="20.5375" x2="143.919" y2="32.0251" gradientUnits="userSpaceOnUse">
<stop offset="0.171096" stop-color="#A3ECDF"/>
<stop offset="1" stop-color="#DDFB66"/>
</linearGradient>
<linearGradient id="paint4_linear" x1="2.24934" y1="20.5375" x2="143.919" y2="32.0251" gradientUnits="userSpaceOnUse">
<stop offset="0.171096" stop-color="#A3ECDF"/>
<stop offset="1" stop-color="#DDFB66"/>
</linearGradient>
<linearGradient id="paint5_linear" x1="2.24934" y1="20.5375" x2="143.919" y2="32.0251" gradientUnits="userSpaceOnUse">
<stop offset="0.171096" stop-color="#A3ECDF"/>
<stop offset="1" stop-color="#DDFB66"/>
</linearGradient>
</defs>
</svg>
