<?xml version="1.0" encoding="utf-8"?>
<!-- Generator: Adobe Illustrator 24.2.1, SVG Export Plug-In . SVG Version: 6.00 Build 0)  -->
<svg version="1.1" id="logo_1_" xmlns="http://www.w3.org/2000/svg" xmlns:xlink="http://www.w3.org/1999/xlink" x="0px" y="0px"
	 viewBox="0 0 241.9 96" style="enable-background:new 0 0 241.9 96;" xml:space="preserve">
<style type="text/css">
	.st0{fill:#FFFFFF;}
</style>
<g id="logo">
	<path class="st0" d="M7.1,69c-3.3-1.9-5.7-4.3-7.1-7.4l10.1-4.3c0.7,1.2,1.9,2.3,3.7,3.3s3.6,1.5,5.7,1.5s3.9-0.4,5.4-1.3
		c1.5-0.9,2.2-2.1,2.2-3.7c0-1.2-0.4-2.1-1.2-2.8c-0.8-0.7-1.7-1.2-2.7-1.5s-2.5-0.7-4.4-1.2c-5.2-1.1-9.5-2.9-12.7-5.5
		C2.7,43.5,1,40.1,1,35.9c0-3.1,0.8-5.9,2.5-8.3s4-4.3,6.8-5.6c2.8-1.3,5.8-2,9.1-2c3.9,0,7.5,0.8,10.8,2.5s5.9,3.9,7.8,6.9L28.7,35
		c-0.8-1.3-2-2.4-3.7-3.4c-1.7-0.9-3.4-1.4-5.2-1.4c-2.2,0-4.1,0.5-5.4,1.4c-1.4,0.9-2.1,2.3-2.1,4c0,0.9,0.3,1.7,0.9,2.3
		c0.6,0.6,1.3,1.1,2.2,1.4c0.9,0.3,2,0.7,3.5,1c0.3,0.1,0.7,0.2,1.2,0.3s1,0.3,1.4,0.4c5.1,1.7,9.2,3.7,12.2,6.2
		c3.1,2.5,4.5,5.7,4.4,9.6c0,2.9-0.9,5.5-2.5,7.9c-1.7,2.4-4,4.2-6.8,5.5s-5.8,2-9,2c-0.7,0-1.2,0-1.6,0C14.1,71.9,10.4,70.8,7.1,69
		z"/>
	<path class="st0" d="M82.2,71.3V45.8c0-2.5-0.5-4.9-1.6-7S78,35,76.1,33.7s-4.1-1.9-6.5-1.9c-2.3,0-4.4,0.6-6.2,1.9
		s-3.2,2.9-4.1,5.1c-1,2.1-1.5,4.5-1.5,7.1v25.4H46V21.8h11.9v5.9c1.7-2.3,3.7-4.1,6.1-5.4c2.3-1.3,4.9-1.9,7.7-1.9
		c4.4,0,8.3,1.1,11.7,3.4c3.4,2.3,6,5.3,7.8,9.2c1.8,3.8,2.8,8.1,2.9,12.7v25.6H82.2z"/>
	<path class="st0" d="M117,21.8v49.5h-11.9V21.8H117z"/>
	<path class="st0" d="M111.1,9l8.9-9l0.5,0.5l-8.9,9l8.9,8.9l-0.5,0.5l-8.9-8.9l-9,8.9l-0.5-0.5l8.9-8.9l-8.9-9l0.5-0.5L111.1,9z"/>
	<path class="st0" d="M128.5,21.8h11.9v6.4c1.7-2.4,3.7-4.3,6.2-5.6c2.4-1.4,5.2-2,8.2-2c4.8,0,9.1,1.2,13.1,3.5s7.1,5.5,9.5,9.5
		s3.5,8.3,3.5,13c0,4.8-1.2,9.1-3.5,13.1s-5.5,7.2-9.5,9.5s-8.3,3.5-13.1,3.5c-3.1,0-5.8-0.7-8.2-2.1s-4.5-3.2-6.2-5.6v31h-11.9
		V21.8z M147.8,33.9c-2,1.3-3.6,3.1-4.7,5.3c-1.1,2.2-1.7,4.7-1.7,7.4s0.6,5.1,1.7,7.4c1.1,2.2,2.7,4,4.7,5.3s4.3,2,6.8,2
		s4.9-0.7,7.1-2s3.9-3.1,5.1-5.3c1.3-2.2,1.9-4.7,1.9-7.4c0-2.6-0.6-5.1-1.9-7.3c-1.3-2.2-3-4-5.1-5.3s-4.5-2-7.1-2
		C152.1,31.9,149.8,32.6,147.8,33.9z"/>
	<path class="st0" d="M189.6,21.8h11.9v6.4c1.7-2.4,3.7-4.3,6.2-5.6c2.4-1.4,5.2-2,8.2-2c4.8,0,9.1,1.2,13.1,3.5s7.1,5.5,9.5,9.5
		c2.3,4,3.5,8.3,3.5,13c0,4.8-1.2,9.1-3.5,13.1s-5.5,7.2-9.5,9.5s-8.3,3.5-13.1,3.5c-3.1,0-5.8-0.7-8.2-2.1s-4.5-3.2-6.2-5.6v31
		h-11.9V21.8z M208.9,33.9c-2,1.3-3.6,3.1-4.7,5.3c-1.1,2.2-1.7,4.7-1.7,7.4s0.6,5.1,1.7,7.4c1.1,2.2,2.7,4,4.7,5.3s4.3,2,6.8,2
		s4.9-0.7,7.1-2s3.9-3.1,5.1-5.3c1.3-2.2,1.9-4.7,1.9-7.4c0-2.6-0.6-5.1-1.9-7.3c-1.3-2.2-3-4-5.1-5.3s-4.5-2-7.1-2
		C213.2,31.9,210.9,32.6,208.9,33.9z"/>
</g>
</svg>
