<?xml version="1.0" encoding="utf-8"?>
<!-- Generator: Adobe Illustrator 22.0.1, SVG Export Plug-In . SVG Version: 6.00 Build 0)  -->
<svg version="1.1" id="Calque_1" xmlns="http://www.w3.org/2000/svg" xmlns:xlink="http://www.w3.org/1999/xlink" x="0px" y="0px"
	 viewBox="0 0 50 26.2" style="enable-background:new 0 0 50 26.2;" xml:space="preserve">
<style type="text/css">
	.st0{fill:#FEFEFE;}
</style>
<g id="ilvW1D_1_">
	<g>
		<g>
			<path class="st0" d="M36,0.2c-0.1,0.4-0.2,0.7-0.3,1c-2.6,8.1-5.1,16.1-7.7,24.2c-0.1,0.2-0.1,0.2-0.3,0.2c-1.7,0-3.3,0-5,0
				c-0.2,0-0.3-0.1-0.3-0.3c-1.4-5.3-2.8-10.6-4.2-15.9c0-0.1,0-0.2-0.1-0.3c-1.5,5.6-2.9,11-4.4,16.6c-0.1,0-0.2,0-0.3,0
				c-1.7,0-3.3,0-5,0c-0.2,0-0.3-0.1-0.4-0.3C6.1,18.8,3.9,12.1,1.8,5.3c-0.5-1.6-1-3.2-1.5-4.8c0-0.1,0-0.2-0.1-0.3
				c0.1,0,0.2,0,0.3,0c1.9,0,3.8,0,5.7,0c0.2,0,0.3,0.1,0.4,0.3C8,6.2,9.5,11.8,10.9,17.4c0,0.1,0,0.1,0.1,0.3
				c0.3-1.3,0.6-2.5,0.9-3.7c1.1-4.5,2.2-9,3.3-13.5c0-0.2,0.1-0.2,0.3-0.2c1.8,0,3.5,0,5.3,0c0.2,0,0.2,0.1,0.3,0.2
				c1.4,5.6,2.8,11.2,4.1,16.9c0,0.1,0,0.2,0.1,0.3c0-0.1,0.1-0.3,0.1-0.4c1.4-5.5,2.9-11.1,4.3-16.7c0.1-0.2,0.2-0.3,0.4-0.3
				c1.9,0,3.8,0,5.6-0.1C35.9,0.2,35.9,0.2,36,0.2z"/>
			<path class="st0" d="M41.4,21.7c0-2.4,1.8-4.2,4.2-4.2c2.4,0,4.2,1.8,4.2,4.2c0,2.5-1.8,4.3-4.2,4.3C43.2,26,41.4,24.2,41.4,21.7
				z"/>
		</g>
	</g>
</g>
</svg>
